<?xml version="1.0" encoding="UTF-8"?>
<svg id="uuid-94dc3e88-f302-4d37-bd85-c48664e3b0e1" data-name="ekstra2" xmlns="http://www.w3.org/2000/svg" viewBox="0 0 534.86 675.48">
  <path d="M130.88,181.62s-26.83-38.76,0-62.61c0,0,53.67-16.89,53.67,17.89,0,0,5.96-29.81,30.81-30.81,0,0-20.87-33.79-4.97-43.73s30.81,0,30.81,0c0,0,3.98-16.89,11.93-16.89,0,0-13.91-30.81,20.87-42.73s81.49,25.84,56.65,65.59c0,0,26.83-10.93,24.85,10.93,0,0,31.8-15.16,35.78,11.8s13.91,36.9-14.91,63.73c0,0,26.83-4.97,26.83,13.91,0,0,14.91-37.76,54.66-17.89,0,0,39.75,48.7-9.94,83.48,0,0,37.76.5,29.81,22.12,0,0,26.83-13.17,17.89,15.65,0,0,38.76-5.44,38.76,19.14s-25.84,24.58-25.84,24.58c0,0,20.87,21.86-5.96,41.74s-60.62-10.93-60.62-10.93c0,0-4.97,13.91-26.83,0,0,0-10.93,37.76-37.76,31.8s-41.74-31.8-41.74-31.8c0,0-17.75,9.3-21.86,0s-60.62-23.85-60.62-23.85c0,0-21.86,27.69-40.75,18.32,0,0-10.08,8.13-24.85,0,0,0-9.94,61.19-56.65,25.41,0,0-19.88,31.8-44.72-.99,0,0-16.89,10.93-25.84-12.92,0,0-63.62,29.81-59.64-43.73s76.53-57.64,76.53-57.64c0,0-18.88-35.78,34.78-30.81,0,0-2.98-11.93,9.94-11.93,0,0-12.92-15.9,8.94-26.83Z" style="fill: #a0d18a; stroke: #166e38; stroke-miterlimit: 10;"/>
  <path d="M263.05,291.2l15.9,39.49c1.59-7.18,4.69-17.27,11.05-28.09,7.62-12.96,16.73-21.5,22.98-26.5,1.38-.27,6.62-1.15,10.04,1.95,1.21,1.1,1.86,2.39,2.55,3.75,1.57,3.11,2.07,5.97,2.25,7.79-7.22,13.55-14.12,30.2-20.46,49.37-9.49,28.66-17.48,65.27-11.52,97.08,0,0-11.93,210.69,32.8,215.66,0,0-40.75,6.96-64.6-16.89,0,0-36.53,54.07-68.57,36.77,0,0,32.8-17.89,28.82-38.76,0,0-28.82,49.69-93.42,28.82,0,0,51.68,8.94,64.6-63.6,0,0,57.11-188.66-14.44-238.35l6.49-18.62,12.46,3.61c1.86-.14,4.81-.48,8.33-1.43,3.65-.98,5.57-2,6.29-2.18,3.59-.91,11.93,10.14,32.56,61.03,3.14-83.75,4.52-96.58-2.09-105.56,1.5.44,5.93,1.55,10.97-.35,3.7-1.39,5.98-3.74,7.02-4.98Z" style="fill: #a08d5f; stroke: #231f20; stroke-miterlimit: 10;"/>
</svg>