<?xml version="1.0" encoding="UTF-8"?>
<svg id="uuid-5142e6ab-9f47-4f5d-8b59-caa401d7c200" data-name="bakgrunn" xmlns="http://www.w3.org/2000/svg" viewBox="0 0 1921 701.35">
  <path d="M.5,77.63C49.25,52.27,124.01,20.13,219.03,6.27c110.31-16.1,185.94,1.48,340.28,22.64,124.64,17.09,254.14,30.14,332.13,34.64,355.7,20.53,440.27-90.61,705.02-46.87,74.64,12.33,189.16,41.2,324.04,120.22v480.72H.5V77.63Z" style="fill: #3e964c;"/>
  <path d="M.5,161.17c51.61-18.59,129.74-42.11,226.68-52.79,273.91-30.18,372.28,78.02,639.81,93.73,263.81,15.5,286.28-82.78,548.12-71.32,219.17,9.59,393.96,86.79,505.39,148.75v421.63H.5V161.17Z" style="fill: #2d783b; stroke: #167139; stroke-miterlimit: 10;"/>
  <path d="M600.06,450.78c-95.31-200.96-60.3-252.19,24.45-234.41,60.07,12.6,109.51,21.08,275.08,24.45,175.06,3.57,269.78-65.19,305.64-14.26,12.75,18.11,58.76,47.39,61.13,110.03,1.66,43.95-60.23,86.62-63.17,112.05,5.92,31.17,42.54,48.67,69.28,95.79,37.75,66.51,218.78,135.51,248.59,156.74-309.72.63-921-.63-1230.72,0,26.88-14.12,193.62-61.09,234.33-140.44,23.97-46.73,73.48-82.06,75.39-109.94Z" style="fill: #b1a455; opacity: .81;"/>
</svg>