<?xml version="1.0" encoding="UTF-8"?>
<svg id="uuid-7d8bd33b-eb89-490b-836b-fae6b7ee5fb9" data-name="young" xmlns="http://www.w3.org/2000/svg" viewBox="0 0 350.68 559.16">
  <path d="M137.96,558.66l-5.36-183.8s-17.85-39.11-38.08-47.61h-26.18l-5.36,11.31v15.22l-3.13-1.12v-13.02l-15.41,9.97-1.46-3.99,14.75-11.16s.93-6.17-5.85-7.2c-6.78-1.04-27.91.96-27.91.96v-5.18h27.51l-11.43-9.7,5.85-2.79,16.88,12.49,32.56.13-50.36-42.66-21,2.92v-2.92l17.41-3.19-15.95-16.88-2.92-3.72,2.13-1.73,9.57,8.64-.66-14.09h4.39l-.8,14.75,39.87,28.97-1.86-16.61-14.88-36.54h4.39l11.56,27.37,11.3-26.31,2.66,1.46-4.92,17.27,6.38-3.59,1.33,1.73s-18.07,8.77-8.37,32.82c0,0,29.23,49.03,45.18,55.01l3.06-1.59.13-91.03s-24.45-69.37-44.38-74.28l-27.64,1.59.4-4.65,16.74-.8-23.92-12.23.53-2.92,41.73,18.34-25.12-54.35,3.32-1.33,20.86,37.61,5.98-35.35,2.79,1.46s-5.32,43.85-1.06,53.55l32.56,55.28.8-42.26-12.07-13.95,4.23-3.59,11.16,11.83,3.06-3.72-.93-50.76s-11.56-26.98-19.27-28.7l-15.28-6.51.8-1.99,14.62,4.52v-16.34l4.78.66,1.33,18.21s15.41,13.55,16.88,23.12l2.92-31.63-18.07-22.32-4.78,1.86-1.73-3.19,2.26-1.86-27.77-11.83.66-3.45,24.98,8.64-13.55-23.25,2.66-1.46,9.7,15.81,1.06-12.62,3.19,1.2,1.06,18.87s18.74,22.86,24.05,24.58l2.92-1.59,2.52-50.36,5.12.4-1,28.57,15.68-14.09,2.26,3.32s-20.2,15.41-18.21,21.26l-9.04,95.41,37.87-58.73.93-22.19,3.59.4.27,19.93,21.39-22.19,3.45,3.06-32.02,41.46,26.31-3.99,15.55-17.67,2.26,1.99-10.63,15.68,21.26,1.59-.27,3.99-19.53.27,3.45,3.72-2.13,1.06-3.99-3.19s-40.85-8.29-55.52,30.18l-13.7,25.11.33,118.37,22.17-24.46,5.54-58.7-17.93-15,2.99-2.99,8.07,6.37-3.48-20.74,3.4-.51s4.76,30.85,11.9,29.07c7.14-1.78,7.39-7.14,7.39-7.14l3.31,2.46-6.63,9.18-6.03,52.61,50.27-59.54,1.62-41.07,4.86-1.21v33.78l22.86-26.91,4.65,4.05-25.89,31.96h14.16l.4,4.25-16.99.2-16.79,21.44,67.16.61,14.97-11.13,3.03,2.63-10.72,8.29,32.57,10.12-4.45,8.5-27.72-12.75-26.91,1.42,18.21,15.98-2.83,3.44-20.43-13.96-48.15-.4-63.32,63.32,1.21,69.39,55.03-66.56-6.47-16.39,3.03-2.02,5.66,10.52-.4-29.33h4.25l.4,30.95,21.24-28.93,3.64,2.43-32.57,53.61,37.95-10.17,32.31-25.79,4.62,4.89-38.55,30.13,27.15,12.49-2.71,4.89s-37.51-25.38-73.3-1.36l-39.09,44.52,1.9,155.41h-20.23Z" style="fill: #a08d5f; stroke: #231f20; stroke-miterlimit: 10;"/>
  <g>
    <path d="M90.39,256.57h0s-4.52-12.91,19.97-9.15c0,0-10.02,20.54-19.97,9.15" style="fill: #a0d18a; stroke: #166e38; stroke-miterlimit: 10;"/>
    <path d="M86.96,246.15h0s-14.77-8.41,11.26-24.86c0,0,7.37,27.43-11.26,24.86" style="fill: #a0d18a; stroke: #166e38; stroke-miterlimit: 10;"/>
    <path d="M64.3,242.6h0s-22.74,1.36-5.54-36.16c0,0,28.34,25.42,5.54,36.16" style="fill: #a0d18a; stroke: #166e38; stroke-miterlimit: 10;"/>
    <path d="M65.6,180.38h0s9.93,15.91-23.97,18.23c0,0,7.24-30.49,23.97-18.23" style="fill: #a0d18a; stroke: #166e38; stroke-miterlimit: 10;"/>
    <path d="M62.73,182.7h0s-7.73,17.08-28.47-9.84c0,0,29.39-10.89,28.47,9.84" style="fill: #a0d18a; stroke: #166e38; stroke-miterlimit: 10;"/>
    <path d="M60.43,165.49h0s-12.4,14.07-24.33-17.75c0,0,31.29-1.79,24.33,17.75" style="fill: #a0d18a; stroke: #166e38; stroke-miterlimit: 10;"/>
    <path d="M73.1,127.65h0s-12.4,14.07-24.33-17.75c0,0,31.29-1.79,24.33,17.75" style="fill: #a0d18a; stroke: #166e38; stroke-miterlimit: 10;"/>
    <path d="M69.17,127.67h0s-11.99-6.6,8.78-20.16c0,0,6.25,22.01-8.78,20.16" style="fill: #a0d18a; stroke: #166e38; stroke-miterlimit: 10;"/>
    <path d="M99.99,129.77h0s-14.45-7.95,10.58-24.29c0,0,7.53,26.52-10.58,24.29" style="fill: #a0d18a; stroke: #166e38; stroke-miterlimit: 10;"/>
    <path d="M125.98,180.67h0s-14.45-7.95,10.58-24.29c0,0,7.53,26.52-10.58,24.29" style="fill: #a0d18a; stroke: #166e38; stroke-miterlimit: 10;"/>
    <path d="M129.82,179.24h0s-7.08,12.29-20.7-9.5c0,0,22.92-6.04,20.7,9.5" style="fill: #a0d18a; stroke: #166e38; stroke-miterlimit: 10;"/>
    <path d="M164.44,208.65h0s-9.63,10.42-18.08-13.85c0,0,23.69-.8,18.08,13.85" style="fill: #a0d18a; stroke: #166e38; stroke-miterlimit: 10;"/>
    <path d="M139.67,126.19h0s-2.4,13.98-22.71-1.78c0,0,19.44-13.57,22.71,1.78" style="fill: #a0d18a; stroke: #166e38; stroke-miterlimit: 10;"/>
    <path d="M108.41,97.16h0s-5.49,13.08-21.73-6.84c0,0,21.99-8.85,21.73,6.84" style="fill: #a0d18a; stroke: #166e38; stroke-miterlimit: 10;"/>
    <path d="M122.9,89.72h0s-18.2,4.01-9.1-28.51c0,0,26.15,16.92,9.1,28.51" style="fill: #a0d18a; stroke: #166e38; stroke-miterlimit: 10;"/>
    <path d="M103.3,55.16h0s-12.42,13.9-24.06-17.81c0,0,31.11-1.57,24.06,17.81" style="fill: #a0d18a; stroke: #166e38; stroke-miterlimit: 10;"/>
    <path d="M112.84,40.87h0s-12.88.48-2.67-20.52c0,0,15.7,14.74,2.67,20.52" style="fill: #a0d18a; stroke: #166e38; stroke-miterlimit: 10;"/>
    <path d="M123.94,43.4h0s-12.97-8.31,11.38-21.97c0,0,5.36,25.18-11.38,21.97" style="fill: #a0d18a; stroke: #166e38; stroke-miterlimit: 10;"/>
    <path d="M159.08,36.65h0s-16.6,7.2-13.97-25.48c0,0,28.06,11.27,13.97,25.48" style="fill: #a0d18a; stroke: #166e38; stroke-miterlimit: 10;"/>
    <path d="M160,35.98h0s-21.08-9.94,12.77-35.17c0,0,12.96,36.72-12.77,35.17" style="fill: #a0d18a; stroke: #166e38; stroke-miterlimit: 10;"/>
    <path d="M175.34,51h0s-7.82-16.22,24.79-14.9c0,0-10.09,28.35-24.79,14.9" style="fill: #a0d18a; stroke: #166e38; stroke-miterlimit: 10;"/>
    <path d="M195.18,90.59h0s-17.98.94-4.17-28.62c0,0,22.26,20.26,4.17,28.62" style="fill: #a0d18a; stroke: #166e38; stroke-miterlimit: 10;"/>
    <path d="M214.5,88.57h0s-16.4-7.44,9.47-27.32c0,0,10.43,28.23-9.47,27.32" style="fill: #a0d18a; stroke: #166e38; stroke-miterlimit: 10;"/>
    <path d="M214.65,88.62h0s-7.68-16.29,24.91-14.69c0,0-10.33,28.27-24.91,14.69" style="fill: #a0d18a; stroke: #166e38; stroke-miterlimit: 10;"/>
    <path d="M227.48,115.41h0s-13.49-11.93,17.08-23.34c0,0,1.68,30.05-17.08,23.34" style="fill: #a0d18a; stroke: #166e38; stroke-miterlimit: 10;"/>
    <path d="M239.56,128.35h0s.13-18.01,28.81-2.46c0,0-21.55,21.01-28.81,2.46" style="fill: #a0d18a; stroke: #166e38; stroke-miterlimit: 10;"/>
    <path d="M222.15,134.25h0s8.64-9.08,15.81,12.47c0,0-20.95.41-15.81-12.47" style="fill: #a0d18a; stroke: #166e38; stroke-miterlimit: 10;"/>
    <path d="M171.54,195.72h0s-19.94,6.56-13.44-30.91c0,0,31.22,15.98,13.44,30.91" style="fill: #a0d18a; stroke: #166e38; stroke-miterlimit: 10;"/>
    <path d="M169.82,193.87h0s-10.64-10.14,14.64-18.51c0,0,.46,24.55-14.64,18.51" style="fill: #a0d18a; stroke: #166e38; stroke-miterlimit: 10;"/>
    <path d="M189.61,214.66h0s-19.36-7.77,9.56-32.1c0,0,13.52,32.13-9.56,32.1" style="fill: #a0d18a; stroke: #166e38; stroke-miterlimit: 10;"/>
    <path d="M189.24,212.84h0s-1.47-17.92,28.45-5c0,0-19.57,22.81-28.45,5" style="fill: #a0d18a; stroke: #166e38; stroke-miterlimit: 10;"/>
    <path d="M235.67,185.7h0s-15.1,7.54-14.29-23.03c0,0,26.71,9.08,14.29,23.03" style="fill: #a0d18a; stroke: #166e38; stroke-miterlimit: 10;"/>
    <path d="M233.35,180.53h0s-15.7-10.51,14.49-26.67c0,0,5.96,31.02-14.49,26.67" style="fill: #a0d18a; stroke: #166e38; stroke-miterlimit: 10;"/>
    <path d="M260.47,190.03h0s-16.73-3.58,3.25-27.28c0,0,15.41,24.08-3.25,27.28" style="fill: #a0d18a; stroke: #166e38; stroke-miterlimit: 10;"/>
    <path d="M258.63,187.43h0s-3.09-16.82,26.45-7.43c0,0-16.36,23.44-26.45,7.43" style="fill: #a0d18a; stroke: #166e38; stroke-miterlimit: 10;"/>
    <path d="M251.35,221.22h0s-11.63-9.08,12.81-19.95c0,0,2.88,24.5-12.81,19.95" style="fill: #a0d18a; stroke: #166e38; stroke-miterlimit: 10;"/>
    <path d="M253.17,220.5h0s10.3-13.5,23.12,14.48c0,0-28.15,3.63-23.12-14.48" style="fill: #a0d18a; stroke: #166e38; stroke-miterlimit: 10;"/>
    <path d="M302.1,236.88h0s-8.55-14.68,22.2-15.84c0,0-7.39,27.41-22.2,15.84" style="fill: #a0d18a; stroke: #166e38; stroke-miterlimit: 10;"/>
    <path d="M323.09,254.04h0s4.81-16.29,26.76,5.28c0,0-25.01,13.43-26.76-5.28" style="fill: #a0d18a; stroke: #166e38; stroke-miterlimit: 10;"/>
    <path d="M322.47,259.42h0s16.98-8.43,15.99,25.91c0,0-29.97-10.27-15.99-25.91" style="fill: #a0d18a; stroke: #166e38; stroke-miterlimit: 10;"/>
    <path d="M282.78,266.2h0s15.18-11.35,20.4,22.59c0,0-31.33-4.69-20.4-22.59" style="fill: #a0d18a; stroke: #166e38; stroke-miterlimit: 10;"/>
    <path d="M233.27,297.18h0s-16.9-8.59,11.23-28.29c0,0,9.66,30.17-11.23,28.29" style="fill: #a0d18a; stroke: #166e38; stroke-miterlimit: 10;"/>
    <path d="M215.07,293.48h0s-18.12,5.56-11.57-28.16c0,0,27.9,15,11.57,28.16" style="fill: #a0d18a; stroke: #166e38; stroke-miterlimit: 10;"/>
    <path d="M204.13,309.92h0s-15.77,4.84-10.07-24.5c0,0,24.28,13.05,10.07,24.5" style="fill: #a0d18a; stroke: #166e38; stroke-miterlimit: 10;"/>
    <path d="M275.44,313.95h0s-16.49-.2-2.12-26.41c0,0,19.15,19.83,2.12,26.41" style="fill: #a0d18a; stroke: #166e38; stroke-miterlimit: 10;"/>
    <path d="M276.37,315.06h0s-10.36-16.8,25.33-19.05c0,0-7.79,32.05-25.33,19.05" style="fill: #a0d18a; stroke: #166e38; stroke-miterlimit: 10;"/>
    <path d="M266.48,358.51h0s-7.34-11.91,17.97-13.51c0,0-5.53,22.73-17.97,13.51" style="fill: #a0d18a; stroke: #166e38; stroke-miterlimit: 10;"/>
    <path d="M266.84,354.21h0s13.45-13.38,23.39,19.53c0,0-31.71-.26-23.39-19.53" style="fill: #a0d18a; stroke: #166e38; stroke-miterlimit: 10;"/>
    <path d="M213.64,291.45h0s-11.39-7.6,10.47-19.33c0,0,4.35,22.46-10.47,19.33" style="fill: #a0d18a; stroke: #166e38; stroke-miterlimit: 10;"/>
    <path d="M237.18,292.98h0s-5.6-12.79,19.63-10.85c0,0-8.61,21.69-19.63,10.85" style="fill: #a0d18a; stroke: #166e38; stroke-miterlimit: 10;"/>
    <path d="M121.66,89.16h0s-7.61-9.81,14.57-13.62c0,0-2.72,20.57-14.57,13.62" style="fill: #a0d18a; stroke: #166e38; stroke-miterlimit: 10;"/>
    <path d="M64,240.6h0s-9.77-9.66,14-17.05c0,0,0,22.95-14,17.05" style="fill: #a0d18a; stroke: #166e38; stroke-miterlimit: 10;"/>
    <path d="M64.52,242.29h0s-7.46,11.53-19.55-10.22c0,0,22.47-4.7,19.55,10.22" style="fill: #a0d18a; stroke: #166e38; stroke-miterlimit: 10;"/>
    <path d="M33.99,252.9h0s-16.31,3.25-7.61-25.6c0,0,23.02,15.56,7.61,25.6" style="fill: #a0d18a; stroke: #166e38; stroke-miterlimit: 10;"/>
    <path d="M27.76,257.38h0s-11.02,12.45-21.54-15.77c0,0,27.75-1.55,21.54,15.77" style="fill: #a0d18a; stroke: #166e38; stroke-miterlimit: 10;"/>
    <path d="M23.89,286.85h0s-11.02,12.45-21.54-15.77c0,0,27.75-1.55,21.54,15.77" style="fill: #a0d18a; stroke: #166e38; stroke-miterlimit: 10;"/>
    <path d="M24.89,280.66h0s8.59,14.23-21.49,15.85c0,0,6.81-26.94,21.49-15.85" style="fill: #a0d18a; stroke: #166e38; stroke-miterlimit: 10;"/>
    <path d="M42.77,316.26h0s-13.28,10.01-17.97-19.75c0,0,27.5,4.01,17.97,19.75" style="fill: #a0d18a; stroke: #166e38; stroke-miterlimit: 10;"/>
    <path d="M26.21,324.47h0s3.6,16.23-25.43,8.16c0,0,15.06-23.36,25.43-8.16" style="fill: #a0d18a; stroke: #166e38; stroke-miterlimit: 10;"/>
    <path d="M46.16,347.98h0s.25,18.69-29.85,3.17c0,0,21.91-22.27,29.85-3.17" style="fill: #a0d18a; stroke: #166e38; stroke-miterlimit: 10;"/>
    <path d="M40.89,346.38h0s12,1.8-1.1,19.46c0,0-11.96-16.37,1.1-19.46" style="fill: #a0d18a; stroke: #166e38; stroke-miterlimit: 10;"/>
    <path d="M58.73,351.55h0s16.53-.05,2.53,26.42c0,0-19.49-19.58-2.53-26.42" style="fill: #a0d18a; stroke: #166e38; stroke-miterlimit: 10;"/>
    <path d="M46.74,313.83h0s-16.63,0-2.45-26.59c0,0,19.53,19.76,2.45,26.59" style="fill: #a0d18a; stroke: #166e38; stroke-miterlimit: 10;"/>
    <path d="M35.35,252.15h0s-8.13-4.7,6.32-13.7c0,0,3.97,15.19-6.32,13.7" style="fill: #a0d18a; stroke: #166e38; stroke-miterlimit: 10;"/>
  </g>
</svg>