<?xml version="1.0" encoding="UTF-8"?>
<svg id="uuid-5742d697-c3bf-4d92-9558-21606265133a" data-name="treebakgrunn2" xmlns="http://www.w3.org/2000/svg" viewBox="0 0 1915.17 1101.9">
  <g>
    <path d="M956.11,219.56s-26.83-38.76,0-62.61c0,0,53.67-16.89,53.67,17.89,0,0,5.96-29.81,30.81-30.81,0,0-20.87-33.79-4.97-43.73s30.81,0,30.81,0c0,0,3.98-16.89,11.93-16.89,0,0-13.91-30.81,20.87-42.73,34.78-11.93,81.49,25.84,56.65,65.59,0,0,26.83-10.93,24.85,10.93,0,0,31.8-15.16,35.78,11.8,3.98,26.96,13.91,36.9-14.91,63.73,0,0,26.83-4.97,26.83,13.91,0,0,14.91-37.76,54.66-17.89,0,0,39.75,48.7-9.94,83.48,0,0,37.76.5,29.81,22.12,0,0,26.83-13.17,17.89,15.65,0,0,38.76-5.44,38.76,19.14s-25.84,24.58-25.84,24.58c0,0,20.87,21.86-5.96,41.74-26.83,19.88-60.62-10.93-60.62-10.93,0,0-4.97,13.91-26.83,0,0,0-10.93,37.76-37.76,31.8-26.83-5.96-41.74-31.8-41.74-31.8,0,0-17.75,9.3-21.86,0-4.11-9.3-60.62-23.85-60.62-23.85,0,0-21.86,27.69-40.75,18.32,0,0-10.08,8.13-24.85,0,0,0-9.94,61.19-56.65,25.41,0,0-19.88,31.8-44.72-.99,0,0-16.89,10.93-25.84-12.92,0,0-63.62,29.81-59.64-43.73,3.99-73.54,76.53-57.64,76.53-57.64,0,0-18.88-35.78,34.78-30.81,0,0-2.98-11.93,9.94-11.93,0,0-12.92-15.9,8.94-26.83Z" style="fill: #a0d18a; stroke: #166e38; stroke-miterlimit: 10;"/>
    <path d="M1088.29,329.14l15.9,39.49c1.59-7.18,4.69-17.27,11.05-28.09,7.62-12.96,16.73-21.5,22.98-26.5,1.38-.27,6.62-1.15,10.04,1.95,1.21,1.1,1.86,2.39,2.55,3.75,1.57,3.11,2.07,5.97,2.25,7.79-7.22,13.55-14.12,30.2-20.46,49.37-9.49,28.66-17.48,65.27-11.52,97.08,0,0-11.93,210.69,32.8,215.66,0,0-40.75,6.96-64.6-16.89,0,0-36.53,54.07-68.57,36.77,0,0,32.8-17.89,28.82-38.76,0,0-28.82,49.69-93.42,28.82,0,0,51.68,8.94,64.6-63.6,0,0,57.11-188.66-14.44-238.35l6.49-18.62,12.46,3.61c1.86-.14,4.81-.48,8.33-1.43,3.65-.98,5.57-2,6.29-2.18,3.59-.91,11.93,10.14,32.56,61.03,3.14-83.75,4.52-96.58-2.09-105.56,1.5.44,5.93,1.55,10.97-.35,3.7-1.39,5.98-3.74,7.02-4.98Z" style="fill: #a08d5f; stroke: #231f20; stroke-miterlimit: 10;"/>
  </g>
  <g>
    <path d="M1511.19,466.57s-26.83-38.76,0-62.61c0,0,53.67-16.89,53.67,17.89,0,0,5.96-29.81,30.81-30.81,0,0-20.87-33.79-4.97-43.73,15.9-9.94,30.81,0,30.81,0,0,0,3.98-16.89,11.93-16.89,0,0-13.91-30.81,20.87-42.73,34.78-11.93,81.49,25.84,56.65,65.59,0,0,26.83-10.93,24.85,10.93,0,0,31.8-15.16,35.78,11.8,3.98,26.96,13.91,36.9-14.91,63.73,0,0,26.83-4.97,26.83,13.91,0,0,14.91-37.76,54.66-17.89,0,0,39.75,48.7-9.94,83.48,0,0,37.76.5,29.81,22.12,0,0,26.83-13.17,17.89,15.65,0,0,38.76-5.44,38.76,19.14s-25.84,24.58-25.84,24.58c0,0,20.87,21.86-5.96,41.74-26.83,19.88-60.62-10.93-60.62-10.93,0,0-4.97,13.91-26.83,0,0,0-10.93,37.76-37.76,31.8-26.83-5.96-41.74-31.8-41.74-31.8,0,0-17.75,9.3-21.86,0-4.11-9.3-60.62-23.85-60.62-23.85,0,0-21.86,27.69-40.75,18.32,0,0-10.08,8.13-24.85,0,0,0-9.94,61.19-56.65,25.41,0,0-19.88,31.8-44.72-.99,0,0-16.89,10.93-25.84-12.92,0,0-63.62,29.81-59.64-43.73,3.99-73.54,76.53-57.64,76.53-57.64,0,0-18.88-35.78,34.78-30.81,0,0-2.98-11.93,9.94-11.93,0,0-12.92-15.9,8.94-26.83Z" style="fill: #a0d18a; stroke: #166e38; stroke-miterlimit: 10;"/>
    <path d="M1643.36,576.15l15.9,39.49c1.59-7.18,4.69-17.27,11.05-28.09,7.62-12.96,16.73-21.5,22.98-26.5,1.38-.27,6.62-1.15,10.04,1.95,1.21,1.1,1.86,2.39,2.55,3.75,1.57,3.11,2.07,5.97,2.25,7.79-7.22,13.55-14.12,30.2-20.46,49.37-9.49,28.66-17.48,65.27-11.52,97.08,0,0-11.93,210.69,32.8,215.66,0,0-40.75,6.96-64.6-16.89,0,0-36.53,54.07-68.57,36.77,0,0,32.8-17.89,28.82-38.76,0,0-28.82,49.69-93.42,28.82,0,0,51.68,8.94,64.6-63.6,0,0,57.11-188.66-14.44-238.35l6.49-18.62,12.46,3.61c1.86-.14,4.81-.48,8.33-1.43,3.65-.98,5.57-2,6.29-2.18,3.59-.91,11.93,10.14,32.56,61.03,3.14-83.75,4.52-96.58-2.09-105.56,1.5.44,5.93,1.55,10.97-.35,3.7-1.39,5.98-3.74,7.02-4.98Z" style="fill: #a08d5f; stroke: #231f20; stroke-miterlimit: 10;"/>
  </g>
  <g>
    <path d="M454.51,289.83s-26.83-38.76,0-62.61c0,0,53.67-16.89,53.67,17.89,0,0,5.96-29.81,30.81-30.81,0,0-20.87-33.79-4.97-43.73s30.81,0,30.81,0c0,0,3.98-16.89,11.93-16.89,0,0-13.91-30.81,20.87-42.73,34.78-11.93,81.49,25.84,56.65,65.59,0,0,26.83-10.93,24.85,10.93,0,0,31.8-15.16,35.78,11.8,3.98,26.96,13.91,36.9-14.91,63.73,0,0,26.83-4.97,26.83,13.91,0,0,14.91-37.76,54.66-17.89,0,0,39.75,48.7-9.94,83.48,0,0,37.76.5,29.81,22.12,0,0,26.83-13.17,17.89,15.65,0,0,38.76-5.44,38.76,19.14s-25.84,24.58-25.84,24.58c0,0,20.87,21.86-5.96,41.74-26.83,19.88-60.62-10.93-60.62-10.93,0,0-4.97,13.91-26.83,0,0,0-10.93,37.76-37.76,31.8-26.83-5.96-41.74-31.8-41.74-31.8,0,0-17.75,9.3-21.86,0-4.11-9.3-60.62-23.85-60.62-23.85,0,0-21.86,27.69-40.75,18.32,0,0-10.08,8.13-24.85,0,0,0-9.94,61.19-56.65,25.41,0,0-19.88,31.8-44.72-.99,0,0-16.89,10.93-25.84-12.92,0,0-63.62,29.81-59.64-43.73,3.99-73.54,76.53-57.64,76.53-57.64,0,0-18.88-35.78,34.78-30.81,0,0-2.98-11.93,9.94-11.93,0,0-12.92-15.9,8.94-26.83Z" style="fill: #a0d18a; stroke: #166e38; stroke-miterlimit: 10;"/>
    <path d="M586.69,399.41l15.9,39.49c1.59-7.18,4.69-17.27,11.05-28.09,7.62-12.96,16.73-21.5,22.98-26.5,1.38-.27,6.62-1.15,10.04,1.95,1.21,1.1,1.86,2.39,2.55,3.75,1.57,3.11,2.07,5.97,2.25,7.79-7.22,13.55-14.12,30.2-20.46,49.37-9.49,28.66-17.48,65.27-11.52,97.08,0,0-11.93,210.69,32.8,215.66,0,0-40.75,6.96-64.6-16.89,0,0-36.53,54.07-68.57,36.77,0,0,32.8-17.89,28.82-38.76,0,0-28.82,49.69-93.42,28.82,0,0,51.68,8.94,64.6-63.6,0,0,57.11-188.66-14.44-238.35l6.49-18.62,12.46,3.61c1.86-.14,4.81-.48,8.33-1.43,3.65-.98,5.57-2,6.29-2.18,3.59-.91,11.93,10.14,32.56,61.03,3.14-83.75,4.52-96.58-2.09-105.56,1.5.44,5.93,1.55,10.97-.35,3.7-1.39,5.98-3.74,7.02-4.98Z" style="fill: #a08d5f; stroke: #231f20; stroke-miterlimit: 10;"/>
  </g>
  <g>
    <path d="M726.85,246.59s-26.83-38.76,0-62.61c0,0,53.67-16.89,53.67,17.89,0,0,5.96-29.81,30.81-30.81,0,0-20.87-33.79-4.97-43.73,15.9-9.94,30.81,0,30.81,0,0,0,3.98-16.89,11.93-16.89,0,0-13.91-30.81,20.87-42.73,34.78-11.93,81.49,25.84,56.65,65.59,0,0,26.83-10.93,24.85,10.93,0,0,31.8-15.16,35.78,11.8,3.98,26.96,13.91,36.9-14.91,63.73,0,0,26.83-4.97,26.83,13.91,0,0,14.91-37.76,54.66-17.89,0,0,39.75,48.7-9.94,83.48,0,0,37.76.5,29.81,22.12,0,0,26.83-13.17,17.89,15.65,0,0,38.76-5.44,38.76,19.14s-25.84,24.58-25.84,24.58c0,0,20.87,21.86-5.96,41.74-26.83,19.88-60.62-10.93-60.62-10.93,0,0-4.97,13.91-26.83,0,0,0-10.93,37.76-37.76,31.8-26.83-5.96-41.74-31.8-41.74-31.8,0,0-17.75,9.3-21.86,0-4.11-9.3-60.62-23.85-60.62-23.85,0,0-21.86,27.69-40.75,18.32,0,0-10.08,8.13-24.85,0,0,0-9.94,61.19-56.65,25.41,0,0-19.88,31.8-44.72-.99,0,0-16.89,10.93-25.84-12.92,0,0-63.62,29.81-59.64-43.73,3.99-73.54,76.53-57.64,76.53-57.64,0,0-18.88-35.78,34.78-30.81,0,0-2.98-11.93,9.94-11.93,0,0-12.92-15.9,8.94-26.83Z" style="fill: #a0d18a; stroke: #166e38; stroke-miterlimit: 10;"/>
    <path d="M859.03,356.17l15.9,39.49c1.59-7.18,4.69-17.27,11.05-28.09,7.62-12.96,16.73-21.5,22.98-26.5,1.38-.27,6.62-1.15,10.04,1.95,1.21,1.1,1.86,2.39,2.55,3.75,1.57,3.11,2.07,5.97,2.25,7.79-7.22,13.55-14.12,30.2-20.46,49.37-9.49,28.66-17.48,65.27-11.52,97.08,0,0-11.93,210.69,32.8,215.66,0,0-40.75,6.96-64.6-16.89,0,0-36.53,54.07-68.57,36.77,0,0,32.8-17.89,28.82-38.76,0,0-28.82,49.69-93.42,28.82,0,0,51.68,8.94,64.6-63.6,0,0,57.11-188.66-14.44-238.35l6.49-18.62,12.46,3.61c1.86-.14,4.81-.48,8.33-1.43,3.65-.98,5.57-2,6.29-2.18,3.59-.91,11.93,10.14,32.56,61.03,3.14-83.75,4.52-96.58-2.09-105.56,1.5.44,5.93,1.55,10.97-.35,3.7-1.39,5.98-3.74,7.02-4.98Z" style="fill: #a08d5f; stroke: #231f20; stroke-miterlimit: 10;"/>
  </g>
  <g>
    <path d="M170.58,665.01s46.14,9.37,71.37-77.14c0,0,43.98-145.62-5.05-222.76l-15.14-50.46,38.32,9.37,4.94,25.95s28.12,54.79,26.67,59.84c0,0,26.67-72.93,40.37-73.95l34.6,7.63s-46.86,178.78-13.7,237.9c0,0,16.58,57.67,43.25,69.21,0,0-41.09,12.98-77.14-17.3,0,0-33.16,43.98-71.37,37.49,0,0,35.32-26.67,35.68-44.7,0,0-53.71,54.79-112.82,38.93Z" style="fill: #a08d5f; stroke: #231f20; stroke-miterlimit: 10;"/>
    <path d="M178.51,178.39s-10.09-28.84,14.42-28.12c0,0-8.65-12.26,0-15.86,0,0-36.05-46.14-5.05-77.14,0,0,36.05-18.74,48.3,10.09,0,0,5.77-13.7,18.02-7.21,0,0-4.33-14.42,9.37-15.14,0,0-10.09-34.6,17.3-42.53,0,0,30.28-10.09,25.95,15.14,0,0,47.58-19.46,46.86,26.67,0,0,9.37-.72,10.81,7.21,0,0,15.14-13.7,31-1.44,0,0,21.63,32.44-4.33,46.86,0,0,15.14,9.37,9.37,18.02,0,0,13.29-1.44,3.4,7.21,0,0,17.5-10.09,29.76,3.6,12.26,13.7-4.33,26.67-4.33,26.67,0,0,15.52,8.65,8.84,20.19,0,0,11.35-.72,12.79,8.65l4.33,32.44-104.53,37.49-126.88-9.37-45.42-49.74v-13.7Z" style="fill: #a0d18a; stroke: #166e38; stroke-miterlimit: 10;"/>
    <path d="M208.07,215.88s2.16-47.58-37.49-41.81c-39.65,5.77-24.51,41.81-24.51,41.81,0,0-11.53-2.16-14.42,15.14,0,0-17.3-34.6-41.09-11.53,0,0-20.19,43.25,6.49,62,0,0-5.05,14.42-.72,20.19,0,0-23.07,18.63-15.86,34.18,7.21,15.56,23.79,11.23,23.79,11.23,0,0-2.88,15.14,3.6,17.3s22.35,0,22.35,0c0,0-5.7,25.23,13.37,25.95s31.72-18.02,31.72-18.02c0,0,8.98,25.95,23.39,24.51,14.42-1.44,35.32-2.16,38.21-31.72v-13.7s17.3,9.37,25.95,5.05c8.65-4.33,15.14-15.86,15.14-15.86l31-25.95,15.14-33.88-21.63-66.32-10.09-2.16s-3.6-16.58-18.02-9.37c0,0,1.44-23.07-19.46-19.46-20.91,3.6-16.58,26.67-16.58,26.67,0,0-15.86-11.53-30.28,5.77Z" style="fill: #a0d18a; stroke: #166e38; stroke-miterlimit: 10;"/>
    <path d="M298.18,291.58s-43.25-36.05-14.78-74.97,58.03,0,58.03,0c0,0-2.88-25.48,33.88-43.02,36.77-17.54,49.02,24.27,49.02,24.27,0,0,7.21-5.05,14.42,2.88,0,0,9.37-30.28,38.93-22.35,29.56,7.93,34.6,30.28,27.39,48.3l10.09,19.46s38.93.72,31.72,30.28c0,0,2.88,29.56-25.23,30.28l-10.81,11.53s7.93,20.91-2.88,28.84c-10.81,7.93-25.23,4.33-25.23,4.33,0,0,.72,20.19-9.37,21.63-10.09,1.44-31.72-10.81-31.72-10.81,0,0,4.33,31.72-33.88,39.65-38.21,7.93-44.77-43.32-44.77-43.32,0,0-20.07,19.69-32.36,5.83-12.3-13.86-15.3-28.53-15.3-28.53,0,0-32.94,29.98-41.62-16.16,0,0,2.14-18.02,18.72-11.53,0,0-3.6-16.58,5.77-16.58Z" style="fill: #a0d18a; stroke: #166e38; stroke-miterlimit: 10;"/>
  </g>
  <g>
    <path d="M1494.19,731.75s46.14,9.37,71.37-77.14c0,0,43.98-145.62-5.05-222.76l-15.14-50.46,38.32,9.37,4.94,25.95s28.12,54.79,26.67,59.84c0,0,26.67-72.93,40.37-73.95l34.6,7.63s-46.86,178.78-13.7,237.9c0,0,16.58,57.67,43.25,69.21,0,0-41.09,12.98-77.14-17.3,0,0-33.16,43.98-71.37,37.49,0,0,35.32-26.67,35.68-44.7,0,0-53.71,54.79-112.82,38.93Z" style="fill: #a08d5f; stroke: #231f20; stroke-miterlimit: 10;"/>
    <path d="M1502.12,245.14s-10.09-28.84,14.42-28.12c0,0-8.65-12.26,0-15.86,0,0-36.05-46.14-5.05-77.14,0,0,36.05-18.74,48.3,10.09,0,0,5.77-13.7,18.02-7.21,0,0-4.33-14.42,9.37-15.14,0,0-10.09-34.6,17.3-42.53,0,0,30.28-10.09,25.95,15.14,0,0,47.58-19.46,46.86,26.67,0,0,9.37-.72,10.81,7.21,0,0,15.14-13.7,31-1.44,0,0,21.63,32.44-4.33,46.86,0,0,15.14,9.37,9.37,18.02,0,0,13.29-1.44,3.4,7.21,0,0,17.5-10.09,29.76,3.6,12.26,13.7-4.33,26.67-4.33,26.67,0,0,15.52,8.65,8.84,20.19,0,0,11.35-.72,12.79,8.65l4.33,32.44-104.53,37.49-126.88-9.37-45.42-49.74v-13.7Z" style="fill: #a0d18a; stroke: #166e38; stroke-miterlimit: 10;"/>
    <path d="M1531.67,282.63s2.16-47.58-37.49-41.81c-39.65,5.77-24.51,41.81-24.51,41.81,0,0-11.53-2.16-14.42,15.14,0,0-17.3-34.6-41.09-11.53,0,0-20.19,43.25,6.49,62,0,0-5.05,14.42-.72,20.19,0,0-23.07,18.63-15.86,34.18,7.21,15.56,23.79,11.23,23.79,11.23,0,0-2.88,15.14,3.6,17.3s22.35,0,22.35,0c0,0-5.7,25.23,13.37,25.95s31.72-18.02,31.72-18.02c0,0,8.98,25.95,23.39,24.51,14.42-1.44,35.32-2.16,38.21-31.72v-13.7s17.3,9.37,25.95,5.05c8.65-4.33,15.14-15.86,15.14-15.86l31-25.95,15.14-33.88-21.63-66.32-10.09-2.16s-3.6-16.58-18.02-9.37c0,0,1.44-23.07-19.46-19.46-20.91,3.6-16.58,26.67-16.58,26.67,0,0-15.86-11.53-30.28,5.77Z" style="fill: #a0d18a; stroke: #166e38; stroke-miterlimit: 10;"/>
    <path d="M1621.79,358.32s-43.25-36.05-14.78-74.97,58.03,0,58.03,0c0,0-2.88-25.48,33.88-43.02,36.77-17.54,49.02,24.27,49.02,24.27,0,0,7.21-5.05,14.42,2.88,0,0,9.37-30.28,38.93-22.35,29.56,7.93,34.6,30.28,27.39,48.3l10.09,19.46s38.93.72,31.72,30.28c0,0,2.88,29.56-25.23,30.28l-10.81,11.53s7.93,20.91-2.88,28.84c-10.81,7.93-25.23,4.33-25.23,4.33,0,0,.72,20.19-9.37,21.63-10.09,1.44-31.72-10.81-31.72-10.81,0,0,4.33,31.72-33.88,39.65-38.21,7.93-44.77-43.32-44.77-43.32,0,0-20.07,19.69-32.36,5.83-12.3-13.86-15.3-28.53-15.3-28.53,0,0-32.94,29.98-41.62-16.16,0,0,2.14-18.02,18.72-11.53,0,0-3.6-16.58,5.77-16.58Z" style="fill: #a0d18a; stroke: #166e38; stroke-miterlimit: 10;"/>
  </g>
  <g>
    <g>
      <path d="M96.17,608.05s-21.09-19.41,5.74-43.27c0,0,47.92-36.24,47.92-1.46,0,0,5.96-29.81,30.81-30.81,0,0-20.87-33.79-4.97-43.73,15.9-9.94,30.81,0,30.81,0,0,0,3.98-16.89,11.93-16.89,0,0,.07-9.42,36.82-8.14,13.77.48,40.01,6.32,40.7,31,0,0,26.83-10.93,24.84,10.93.29,7.26,35.04,9.34,38.36,19.98,8.11,26.01,11.33,28.72-17.49,55.55,0,0,26.83-4.97,26.83,13.91,0,0-5.89-12.11,33.87,7.76,0,0,32.79,15.95,10.85,57.83,0,0,37.76.5,29.81,22.12,0,0,26.83-13.17,17.89,15.65,0,0,22.09-5.86,22.09,18.73s-9.17,25-9.17,25c0,0,6.76,11.84-20.08,31.72s-46.51-.91-46.51-.91c0,0-4.97,13.91-26.83,0,0,0-10.93,37.76-37.76,31.8-26.83-5.96-41.74-31.8-41.74-31.8,0,0-17.75,9.3-21.86,0-4.11-9.3-60.62-23.85-60.62-23.85,0,0-21.86,27.69-40.75,18.32,0,0-10.08,8.13-24.85,0,0,0-9.94,61.19-56.65,25.41,0,0-19.88,31.8-44.72-.99,0,0-16.89,10.93-25.84-12.92,0,0-28.71,25.95-24.73-47.59s41.62-53.78,41.62-53.78c0,0-18.88-35.78,34.78-30.81,0,0-2.98-11.93,9.94-11.93,0,0-12.92-15.9,8.94-26.83Z" style="fill: #a0d18a; stroke: #166e38; stroke-miterlimit: 10;"/>
      <path d="M228.34,717.63l15.9,39.49c1.59-7.18,4.69-17.27,11.05-28.09,7.62-12.96,16.73-21.5,22.98-26.5,1.38-.27,6.62-1.15,10.04,1.95,1.21,1.1,1.86,2.39,2.55,3.75,1.57,3.11,2.07,5.97,2.25,7.79-7.22,13.55-14.12,30.2-20.46,49.37-9.49,28.66-17.48,65.27-11.52,97.08,0,0-11.93,210.69,32.8,215.66,0,0-40.75,6.96-64.6-16.89,0,0-36.53,54.07-68.57,36.77,0,0,32.8-17.89,28.82-38.76,0,0-28.82,49.69-93.42,28.82,0,0,51.68,8.94,64.6-63.6,0,0,57.11-188.66-14.44-238.35l6.49-18.62,12.46,3.61c1.86-.14,4.81-.48,8.33-1.43,3.65-.98,5.57-2,6.29-2.18,3.59-.91,11.93,10.14,32.56,61.03,3.14-83.75,4.52-96.58-2.09-105.56,1.5.44,5.93,1.55,10.97-.35,3.7-1.39,5.98-3.74,7.02-4.98Z" style="fill: #a08d5f; stroke: #231f20; stroke-miterlimit: 10;"/>
    </g>
    <path d="M120.16,692.16s-43.25-36.05-14.78-74.97c28.48-38.93,58.03,0,58.03,0,0,0-2.88-25.48,33.88-43.02,36.77-17.54,49.02,24.27,49.02,24.27,0,0,7.21-5.05,14.42,2.88,0,0,9.37-30.28,38.93-22.35,29.56,7.93,34.6,30.28,27.39,48.3l10.09,19.46s38.93.72,31.72,30.28c0,0,2.88,29.56-25.23,30.28l-10.81,11.53s7.93,20.91-2.88,28.84-25.23,4.33-25.23,4.33c0,0,.72,20.19-9.37,21.63-10.09,1.44-31.72-10.81-31.72-10.81,0,0,4.33,31.72-33.88,39.65-38.21,7.93-44.77-43.32-44.77-43.32,0,0-20.07,19.69-32.36,5.83-12.3-13.86-15.3-28.53-15.3-28.53,0,0-32.94,29.98-41.62-16.16,0,0,2.14-18.02,18.72-11.53,0,0-3.6-16.58,5.77-16.58Z" style="fill: #a0d18a; stroke: #166e38; stroke-miterlimit: 10;"/>
  </g>
</svg>