<?xml version="1.0" encoding="UTF-8"?>
<svg id="uuid-7a37d57c-2bfe-44d1-a69a-0991a337e5f6" data-name="bigboy" xmlns="http://www.w3.org/2000/svg" viewBox="0 0 690.15 882.55">
  <path d="M298.73,882.05v-325.1s-44.67-86.27-139.47-141l-51.09,15.78-3.65-8.99,44.09-11.23-67.68-33.42,8.71-12.64,36.79,22.47-25.55-46.9h10.11l31.17,52.23,80.03,48.86s-22.18-78.77-57.85-90.42l-.56-7.16,18.25,13.48-11.79-27.8h13.48s18.53,53.92,26.68,54.48c0,0,1.12-51.67-8.42-57.57h13.48l3.93,64.31s39.03,109.52,83.4,108.4c0,0,16.55-139-110.92-207.32l1.92-8.86,9.61,8.2-14.13-25.44,18.94,4.24,2.54,20.63,52.85,45.22-.57-14.7s-50.03-102.6-57.94-103.17l12.72-5.65,14.41,30.53,6.5-41.55,7.07,9.89-1.7,49.75,26,53.14-6.78-106.56,8.48,2.26,2.54,38.44,18.65-28.83,5.37,5.94-16.96,26.85-.85,89.6,37.31,85.36s11.71-174.61-6.58-191.18l-29.62-38.36,5.89-5.09,22.27,25.61-2.7-45.49h10.34v38.49l13.2-36.11,6.52,6.52-10.34,28.79,11.61,94.16,42.5-85.65-1.28-45.99,8.99.51-2.83,28.01,15.67-22.61,4.88,8.48-17.47,25.95.77,8.22,28.01-22.87,9.25,6.17s-64.98,37.27-67.15,97.92l-3.87,109.39s71.77-71.54,70.87-87.74l29.92-100.12,7.65,11.7-16.65,48.82,43.2-44.55,8.55,11.25-51.75,43.2s-16.2,32.4-14.4,40.72l118.34-80.54,7.2,8.55-33.97,30.82,53.55,1.57-2.47,7.65s-100.34,2.02-151.86,55.12l-66.59,89.32-2.25,79.22s130.26-99.47,126.89-124.67l4.27-62.77,8.32.67-.9,50.4,38.7-52.87,8.1,4.95-20.92,23.62,32.4-13.05,3.15,10.57s-51.35-.78-77.31,80.27l71.16,1,37.55-36.14,3.29.7-12.44,22.76,43.41-2.82-2.11,8.21-44.35,3.29-19.95,8.92,44.35,21.12-3.99,7.51s-69.93-43.18-138.92-6.34l-99.73,98.33,15.83,310.71h-73.31Z" style="fill: #a08d5f; stroke: #231f20; stroke-miterlimit: 10;"/>
  <path d="M559.2,460.81v19.32l-10.48,8.52,5.24,8.52,11.14,5.24,10.81-4.91s-6.88,36.68,29.48,32.42,31.77-25.55,31.77-25.55c0,0,18.67,0,16.7-15.07,0,0,37.99,10.15,35.7-37.01s-27.84-49.13-27.84-49.13l-.98-13.76s18.34-15.72-.33-27.84c0,0-8.84-21.94-30.13-12.77,0,0,6.88-28.49-18.67-29.8,0,0,38.32-27.84,17.36-55.02l-12.45-35.37-11.79-12.45s35.37-20.31,4.26-43.89h-18.34s-12.77-23.58-34.06-2.29l-10.15,5.9s-12.12-8.84-21.29,3.93c0,0-13.1-9.5-22.93-4.91,0,0,4.91-69.11-44.22-58.63,0,0,1.64-35.04-25.55-20.63,0,0-1.97-45.2-39.3-32.75,0,0,3.28-59.61-40.29-62.23s-48.15,32.42-48.15,32.42c0,0-44.22-17.69-53.06,18.67s0,33.41,0,33.41c0,0-30.79-2.95-43.56,12.12,0,0-32.42-36.03-55.02,3.93l-2.62,10.81s-29.8,16.05-9.83,39.3l.66,22.27s-16.7,6.88-17.36,22.6c0,0-15.72,19,0,28.17l-18.6,17.81s-35.92-15.56-40.73,22.65c0,0-15.1,12.58-5.72,21.74,9.38,9.15-5.03,10.52-5.03,10.52,0,0-7.55,12.13.69,16.93l-7.55.92s-12.36-13.96-25.17-.69c0,0-30.89,24.25-18.3,49.88l1.14,12.58s-12.36,54,28.83,48.5c0,0,17.62-3.43,15.33,18.07,0,0,6.41,24.25,30.66,17.85l15.56,12.58s0,30.66,32.95,27,30.43-18.2,30.43-18.2h10.75s18.3,6.99,17.39-13.61c0,0,27.1.23,7.83-29.74,0,0-1.98-37.27,35.2-30.3,0,0,28.81-16.26,12.08-39.03,0,0,16.81.31,23.27-13.32,6.47-13.63,41.32-18.74,41.32-18.74l1.86-11.15h9.29s48.79,32.99,64.59-12.55c0,0,15.8-20.45,31.6,1.86l34.39,44.61s-14.27,32.42,15.8,31.6c0,0,19.05,33.46,43.68,26.95,0,0,34.85,2.32,43.68-16.73l3.25,6.51s-14.24,14.17-9.76,25.56,28.35,14.4,28.35,14.4l-13.77,12Z" style="fill: #a0d18a; stroke: #166e38; stroke-miterlimit: 10;"/>
</svg>