<?xml version="1.0" encoding="UTF-8"?>
<svg id="uuid-68091c4f-e828-4382-bda8-a95e302a6aae" data-name="ekstra3" xmlns="http://www.w3.org/2000/svg" viewBox="0 0 483.48 638.77">
  <g>
    <path d="M96.17,144.91s-21.09-19.41,5.74-43.27c0,0,47.92-36.24,47.92-1.46,0,0,5.96-29.81,30.81-30.81,0,0-20.87-33.79-4.97-43.73s30.81,0,30.81,0c0,0,3.98-16.89,11.93-16.89,0,0,.07-9.42,36.82-8.14,13.77.48,40.01,6.32,40.7,31,0,0,26.83-10.93,24.84,10.93.29,7.26,35.04,9.34,38.36,19.98,8.11,26.01,11.33,28.72-17.49,55.55,0,0,26.83-4.97,26.83,13.91,0,0-5.89-12.11,33.87,7.76,0,0,32.79,15.95,10.85,57.83,0,0,37.76.5,29.81,22.12,0,0,26.83-13.17,17.89,15.65,0,0,22.09-5.86,22.09,18.73s-9.17,25-9.17,25c0,0,6.76,11.84-20.08,31.72s-46.51-.91-46.51-.91c0,0-4.97,13.91-26.83,0,0,0-10.93,37.76-37.76,31.8s-41.74-31.8-41.74-31.8c0,0-17.75,9.3-21.86,0s-60.62-23.85-60.62-23.85c0,0-21.86,27.69-40.75,18.32,0,0-10.08,8.13-24.85,0,0,0-9.94,61.19-56.65,25.41,0,0-19.88,31.8-44.72-.99,0,0-16.89,10.93-25.84-12.92,0,0-28.71,25.95-24.73-47.59s41.62-53.78,41.62-53.78c0,0-18.88-35.78,34.78-30.81,0,0-2.98-11.93,9.94-11.93,0,0-12.92-15.9,8.94-26.83Z" style="fill: #a0d18a; stroke: #166e38; stroke-miterlimit: 10;"/>
    <path d="M228.34,254.49l15.9,39.49c1.59-7.18,4.69-17.27,11.05-28.09,7.62-12.96,16.73-21.5,22.98-26.5,1.38-.27,6.62-1.15,10.04,1.95,1.21,1.1,1.86,2.39,2.55,3.75,1.57,3.11,2.07,5.97,2.25,7.79-7.22,13.55-14.12,30.2-20.46,49.37-9.49,28.66-17.48,65.27-11.52,97.08,0,0-11.93,210.69,32.8,215.66,0,0-40.75,6.96-64.6-16.89,0,0-36.53,54.07-68.57,36.77,0,0,32.8-17.89,28.82-38.76,0,0-28.82,49.69-93.42,28.82,0,0,51.68,8.94,64.6-63.6,0,0,57.11-188.66-14.44-238.35l6.49-18.62,12.46,3.61c1.86-.14,4.81-.48,8.33-1.43,3.65-.98,5.57-2,6.29-2.18,3.59-.91,11.93,10.14,32.56,61.03,3.14-83.75,4.52-96.58-2.09-105.56,1.5.44,5.93,1.55,10.97-.35,3.7-1.39,5.98-3.74,7.02-4.98Z" style="fill: #a08d5f; stroke: #231f20; stroke-miterlimit: 10;"/>
  </g>
  <path d="M120.16,229.03s-43.25-36.05-14.78-74.97,58.03,0,58.03,0c0,0-2.88-25.48,33.88-43.02s49.02,24.27,49.02,24.27c0,0,7.21-5.05,14.42,2.88,0,0,9.37-30.28,38.93-22.35s34.6,30.28,27.39,48.3l10.09,19.46s38.93.72,31.72,30.28c0,0,2.88,29.56-25.23,30.28l-10.81,11.53s7.93,20.91-2.88,28.84-25.23,4.33-25.23,4.33c0,0,.72,20.19-9.37,21.63s-31.72-10.81-31.72-10.81c0,0,4.33,31.72-33.88,39.65s-44.77-43.32-44.77-43.32c0,0-20.07,19.69-32.36,5.83s-15.3-28.53-15.3-28.53c0,0-32.94,29.98-41.62-16.16,0,0,2.14-18.02,18.72-11.53,0,0-3.6-16.58,5.77-16.58Z" style="fill: #a0d18a; stroke: #166e38; stroke-miterlimit: 10;"/>
</svg>