<?xml version="1.0" encoding="UTF-8"?>
<svg id="uuid-1ca762c2-9f8d-4a38-b49b-3c1fcc3bdce9" data-name="ekstra1" xmlns="http://www.w3.org/2000/svg" viewBox="0 0 469.71 671.93">
  <path d="M92.01,665.01s46.14,9.37,71.37-77.14c0,0,43.98-145.62-5.05-222.76l-15.14-50.46,38.32,9.37,4.94,25.95s28.12,54.79,26.67,59.84c0,0,26.67-72.93,40.37-73.95l34.6,7.63s-46.86,178.78-13.7,237.9c0,0,16.58,57.67,43.25,69.21,0,0-41.09,12.98-77.14-17.3,0,0-33.16,43.98-71.37,37.49,0,0,35.32-26.67,35.68-44.7,0,0-53.71,54.79-112.82,38.93Z" style="fill: #a08d5f; stroke: #231f20; stroke-miterlimit: 10;"/>
  <path d="M99.94,178.39s-10.09-28.84,14.42-28.12c0,0-8.65-12.26,0-15.86,0,0-36.05-46.14-5.05-77.14,0,0,36.05-18.74,48.3,10.09,0,0,5.77-13.7,18.02-7.21,0,0-4.33-14.42,9.37-15.14,0,0-10.09-34.6,17.3-42.53,0,0,30.28-10.09,25.95,15.14,0,0,47.58-19.46,46.86,26.67,0,0,9.37-.72,10.81,7.21,0,0,15.14-13.7,31-1.44,0,0,21.63,32.44-4.33,46.86,0,0,15.14,9.37,9.37,18.02,0,0,13.29-1.44,3.4,7.21,0,0,17.5-10.09,29.76,3.6s-4.33,26.67-4.33,26.67c0,0,15.52,8.65,8.84,20.19,0,0,11.35-.72,12.79,8.65l4.33,32.44-104.53,37.49-126.88-9.37-45.42-49.74v-13.7Z" style="fill: #a0d18a; stroke: #166e38; stroke-miterlimit: 10;"/>
  <path d="M129.5,215.88s2.16-47.58-37.49-41.81-24.51,41.81-24.51,41.81c0,0-11.53-2.16-14.42,15.14,0,0-17.3-34.6-41.09-11.53,0,0-20.19,43.25,6.49,62,0,0-5.05,14.42-.72,20.19,0,0-23.07,18.63-15.86,34.18s23.79,11.23,23.79,11.23c0,0-2.88,15.14,3.6,17.3s22.35,0,22.35,0c0,0-5.7,25.23,13.37,25.95s31.72-18.02,31.72-18.02c0,0,8.98,25.95,23.39,24.51s35.32-2.16,38.21-31.72v-13.7s17.3,9.37,25.95,5.05,15.14-15.86,15.14-15.86l31-25.95,15.14-33.88-21.63-66.32-10.09-2.16s-3.6-16.58-18.02-9.37c0,0,1.44-23.07-19.46-19.46s-16.58,26.67-16.58,26.67c0,0-15.86-11.53-30.28,5.77Z" style="fill: #a0d18a; stroke: #166e38; stroke-miterlimit: 10;"/>
  <path d="M219.61,291.58s-43.25-36.05-14.78-74.97,58.03,0,58.03,0c0,0-2.88-25.48,33.88-43.02s49.02,24.27,49.02,24.27c0,0,7.21-5.05,14.42,2.88,0,0,9.37-30.28,38.93-22.35s34.6,30.28,27.39,48.3l10.09,19.46s38.93.72,31.72,30.28c0,0,2.88,29.56-25.23,30.28l-10.81,11.53s7.93,20.91-2.88,28.84-25.23,4.33-25.23,4.33c0,0,.72,20.19-9.37,21.63s-31.72-10.81-31.72-10.81c0,0,4.33,31.72-33.88,39.65s-44.77-43.32-44.77-43.32c0,0-20.07,19.69-32.36,5.83s-15.3-28.53-15.3-28.53c0,0-32.94,29.98-41.62-16.16,0,0,2.14-18.02,18.72-11.53,0,0-3.6-16.58,5.77-16.58Z" style="fill: #a0d18a; stroke: #166e38; stroke-miterlimit: 10;"/>
</svg>