<?xml version="1.0" encoding="UTF-8"?>
<svg id="uuid-fa2ba5c1-c8a3-470b-b0b6-3006d931fd2d" data-name="chainsaw" xmlns="http://www.w3.org/2000/svg" viewBox="0 0 1171.31 495.06">
  <g>
    <circle cx="825.66" cy="143.08" r="81.53" style="fill: #f2dddd; stroke: #231f20; stroke-miterlimit: 10;"/>
    <circle cx="799.41" cy="134.81" r="33.39" style="stroke: #231f20; stroke-miterlimit: 10;"/>
  </g>
  <path d="M922.1,369.6s37.27,58.18,0,100.12l-38.44,7.77v17.08h47.76s60.57-40.27,29.51-124.96h-38.83Z" style="stroke: #231f20; stroke-miterlimit: 10;"/>
  <g>
    <path d="M829.15,96l-19.85,14.55s-15.17,3.41-15.17,13c0,0-13.55,47.97-11.85,72.24h5.64s1.06-45.24,9.61-70.6c0,0,1.1-9.92,11.85-8.82l15.44,21.78,246.46,29.77,13.23-15.44,25.64,102.83,17.92,5.24s-24.26-106.96-30.6-112.2-12.13-4.41-12.13-4.41c0,0-2.21-14.61-13.51-18.75s-242.68-29.2-242.68-29.2Z" style="fill: #888e8a; stroke: #231f20; stroke-miterlimit: 10;"/>
    <path d="M1091.33,403.29l34.34,9.12s18.24-10.73,27.9-32.73,16.1-52.58,16.1-52.58c0,0,5.9-23.61-9.12-39.7h-4.83v-7.51l-12.88-2.68s2.15-9.16-9.12-16.65-121.79-56.32-160.42-59.54-215.15-4.29-215.15-4.29l-23.61,55.26,6.44,94.43,4.29,25.22-7.51,9.66,35.95,24.14,15.56,13.41h18.78l6.97-16.63,75.65,3.22,21.46,9.66,179.2-11.8Z" style="fill: #943525; stroke: #231f20; stroke-miterlimit: 10;"/>
    <path d="M782.13,380.22s2.25,33.09,25.92,27.9,16.63-25.22,16.63-25.22c0,0-27.36-163.37-70.82-273.63,0,0-25.75-19.58-34.87,13.14,0,0,76.27,235.74,63.15,257.8Z" style="fill: #313331; stroke: #231f20; stroke-miterlimit: 10;"/>
    <path d="M746.67,241.05l-16.43-3.29v-7.89l-8.55,11.18v-5.59s-14.93,4.45-17.29,0-8.43,3.65-8.43,3.65v-12.14l-9.1-3.03s-7.76,16.86-14.16,0h-3.71v8.56h-3.37v-5.86s-13.49,5.4-19.9-.67l-4.72.34v4.38-10.45l-12.81-4.38s-5.73,16.52-11.13,0h-5.06v8.77l-2.36-5.73s-11.16,7.76-16.37-1.35-10.94,3.37-10.94,3.37v-11.47l-9.1-2.7s-6.74,16.86-11.47,0h-4.05v5.73l-4.05-3.71-9.78,3.03s-13.83-5.73-15.85-.67,0-9.1,0-9.1h-12.81s-3.03,13.15-10.79,0h-3.71v7.08l-3.71-7.08s-12.14,8.43-16.52,1.69-7.76,1.01-7.76,1.01v-8.43l-11.13-3.37s-4.05,14.5-10.12,0l-6.07,1.69-1.69,6.74-1.69-5.17s-15.17,6.47-22.01.99l-3.43-6.32-11.15-2.64s-4.11,14.09-12.03,0h-4.99v7.34l-3.82-7.34s-3.82,8.51-16.14,2.64-7.92,3.23-7.92,3.23l-.76-10.86h-10.68s.29,11.74-9.69-1.47h-4.99s.29,12.62-2.94,2.64l-7.34,3.82-18.78.29v-8.81l-11.45-2.05s-2.94,11.74-10.57,0h-4.7l-2.94,2.05s-9.69,7.92-22.31,1.76l-1.76-7.04-11.15-1.76s-1.17,18.78-11.15,0l-3.52,1.47-13.21,7.04s-13.5-6.75-14.97-3.23-1.76-7.04-1.76-7.04l-11.45-2.05s-4.7,16.73-10.27,0h-7.63s-7.34,9.69-23.77,4.11v-6.16l-11.45-3.82s-2.05,17.9-9.98,2.05l-18.2,6.46s-12.91-6.16-15.85-1.17-1.76-7.34-1.76-7.34h-12.03s-2.94,13.8-9.1,2.05h-5.58s-10.86,16.73-21.43,14.09-3.52,7.04-3.52,7.04l-6.46-7.34-7.34,5.58s6.46,20.25-7.92,14.38v2.64l7.04,9.39-9.69-1.76-1.47,24.65,4.99,2.05v5.58l-12.33,1.76,4.99,12.62s12.03-6.75,7.04,10.57l2.05,2.94,9.69-5.28-1.76,7.04s16.44,14.68,25.54,10.57l-.29,9.39,11.74,7.04s-.59-13.8,8.81-1.47l6.16-.29s14.97-4.7,18.49-2.35,7.63,1.17,7.63,1.17l-.88,7.63,12.91,1.47s4.7-10.27,7.92,2.05l18.78-4.7s12.62,6.16,14.68,1.76v8.51l10.57,1.47s4.7-14.97,10.86-.59l4.11.29s13.8-9.1,19.37-2.35,7.04,0,7.04,0v6.16l12.91,3.52s3.82-16.73,9.1,0l11.15-3.23,17.32,1.17,6.16-2.64-.88,9.1,11.15,4.99s-.29-17.61,10.57-2.05l3.82.29s1.76-7.04,3.52-2.05,15.26-9.98,26.12-1.47v7.34l13.8,3.23s-.29-11.45,7.63-1.47l2.64.29,4.4-10.86v6.75s17.02-4.11,20.55.88,5.28-1.47,5.28-1.47v7.34l8.22,2.35s8.22-16.14,14.09,1.47l3.82.29.29-9.69,1.76,4.11s20.55-3.82,24.07,2.64l.88-8.22,1.47,13.21,10.86,3.82s6.46-12.03,11.45-1.76l4.99.88-.29-4.4s24.65,3.52,28.47-3.82l1.17,10.86,9.39,3.52s7.04-13.21,11.74-.29l6.16-.29,1.76-10.27,1.47,8.22s18.2,1.47,23.77-5.58,0,11.45,0,11.45l12.03,1.17s6.75-15.26,10.86-.29l4.11-.29v-7.04l2.35,3.23s22.54,6.16,26.97.88v6.16l7.95,2.05s9.1-15.26,13.8.59l4.99-.88v-11.45l2.35,8.81s15.85-5.58,21.72-.29l5.87-2.05-.59,6.75,9.39,2.35s5.28-12.33,13.21-.59l4.11,1.17.29-15.56,2.05,11.45s16.44-5.28,20.25-.29l5.28-.29,2.64-3.23.59,10.57,9.39,1.76s2.88-16.97,12.03-2.64l3.52-1.17.29-9.98,3.82,9.69,12.03-4.7-1.6-119.74Z" style="fill: #888e8a; stroke: #231f20; stroke-miterlimit: 10;"/>
  </g>
  <path d="M993.54,369.6s37.27,58.18,0,100.12l-38.44,7.77v17.08h47.76s60.57-40.27,29.51-124.96h-38.83Z" style="stroke: #231f20; stroke-miterlimit: 10;"/>
  <g>
    <circle cx="926.72" cy="143.08" r="81.53" style="fill: #f2dddd; stroke: #231f20; stroke-miterlimit: 10;"/>
    <circle cx="900.47" cy="134.81" r="33.39" style="stroke: #231f20; stroke-miterlimit: 10;"/>
  </g>
  <polygon points="791.65 .7 782.13 28.66 867.08 61.54 979.56 20.89 962.48 .7 867.08 37.97 791.65 .7" style="stroke: #231f20; stroke-miterlimit: 10;"/>
  <path d="M845.19,342.37s42.98,6.21,55.28-23.3c0,0,2.92,45.04-55.28,23.3Z" style="stroke: #231f20; stroke-miterlimit: 10;"/>
</svg>